M48
;GenerationSoftware,Autodesk,EAGLE,9.6.2*%
;CreationDate,2022-12-24T08:34:23Z*%
FMAT,2
ICI,OFF
METRIC,TZ,000.000
T3C1.016
T2C1.118
%
G90
M71
T2
X7620Y10160
X7620Y15240
T3
X8890Y40640
X35560Y12700
X35560Y10160
X35560Y7620
X41910Y33020
X41910Y30480
X41910Y27940
X41910Y25400
X41910Y22860
X41910Y20320
X41910Y17780
X41910Y15240
X8890Y43180
X35560Y15240
X8890Y38100
X8890Y35560
X8890Y33020
X8890Y30480
X52070Y43180
X49530Y43180
X49530Y7620
X52070Y7620
X41910Y38100
X41910Y35560
X20320Y10160
X20320Y40640
X20320Y38100
X20320Y35560
X20320Y33020
X20320Y30480
X20320Y27940
X20320Y25400
X20320Y22860
X20320Y20320
X20320Y17780
X20320Y15240
X20320Y12700
X20320Y43180
X20320Y7620
X35560Y43180
X35560Y40640
X35560Y38100
X35560Y35560
X35560Y33020
X35560Y30480
X35560Y27940
X35560Y25400
X35560Y22860
X35560Y20320
X35560Y17780
M30