G04 EAGLE Gerber RS-274X export*
G75*
%MOMM*%
%FSLAX34Y34*%
%LPD*%
%INBottom Copper*%
%IPPOS*%
%AMOC8*
5,1,8,0,0,1.08239X$1,22.5*%
G01*
%ADD10C,1.524000*%
%ADD11P,3.409096X8X202.500000*%


D10*
X195580Y431800D02*
X210820Y431800D01*
X210820Y406400D02*
X195580Y406400D01*
X195580Y381000D02*
X210820Y381000D01*
X210820Y355600D02*
X195580Y355600D01*
X195580Y330200D02*
X210820Y330200D01*
X210820Y304800D02*
X195580Y304800D01*
X195580Y279400D02*
X210820Y279400D01*
X210820Y254000D02*
X195580Y254000D01*
X195580Y228600D02*
X210820Y228600D01*
X210820Y203200D02*
X195580Y203200D01*
X195580Y177800D02*
X210820Y177800D01*
X210820Y152400D02*
X195580Y152400D01*
X195580Y127000D02*
X210820Y127000D01*
X210820Y101600D02*
X195580Y101600D01*
X195580Y76200D02*
X210820Y76200D01*
X347980Y431800D02*
X363220Y431800D01*
X363220Y406400D02*
X347980Y406400D01*
X347980Y381000D02*
X363220Y381000D01*
X363220Y355600D02*
X347980Y355600D01*
X347980Y330200D02*
X363220Y330200D01*
X363220Y304800D02*
X347980Y304800D01*
X347980Y279400D02*
X363220Y279400D01*
X363220Y254000D02*
X347980Y254000D01*
X347980Y228600D02*
X363220Y228600D01*
X363220Y203200D02*
X347980Y203200D01*
X347980Y177800D02*
X363220Y177800D01*
X363220Y152400D02*
X347980Y152400D01*
X347980Y127000D02*
X363220Y127000D01*
X363220Y101600D02*
X347980Y101600D01*
X347980Y76200D02*
X363220Y76200D01*
X411480Y330200D02*
X426720Y330200D01*
X426720Y304800D02*
X411480Y304800D01*
X411480Y279400D02*
X426720Y279400D01*
X426720Y254000D02*
X411480Y254000D01*
X411480Y228600D02*
X426720Y228600D01*
X426720Y203200D02*
X411480Y203200D01*
X411480Y177800D02*
X426720Y177800D01*
X426720Y152400D02*
X411480Y152400D01*
X96520Y431800D02*
X81280Y431800D01*
X81280Y406400D02*
X96520Y406400D01*
X96520Y381000D02*
X81280Y381000D01*
X81280Y355600D02*
X96520Y355600D01*
X96520Y330200D02*
X81280Y330200D01*
X81280Y304800D02*
X96520Y304800D01*
D11*
X76200Y152400D03*
X76200Y101600D03*
D10*
X520700Y424180D02*
X520700Y439420D01*
X495300Y439420D02*
X495300Y424180D01*
X495300Y83820D02*
X495300Y68580D01*
X520700Y68580D02*
X520700Y83820D01*
X426720Y381000D02*
X411480Y381000D01*
X411480Y355600D02*
X426720Y355600D01*
M02*
