G04 EAGLE Gerber RS-274X export*
G75*
%MOMM*%
%FSLAX34Y34*%
%LPD*%
%INSilkscreen Top*%
%IPPOS*%
%AMOC8*
5,1,8,0,0,1.08239X$1,22.5*%
G01*
%ADD10C,0.152400*%
%ADD11C,0.127000*%
%ADD12C,0.254000*%
%ADD13C,0.203200*%


D10*
X215900Y133350D02*
X215900Y120650D01*
X209550Y114300D01*
X196850Y114300D01*
X190500Y120650D01*
X209550Y114300D02*
X215900Y107950D01*
X215900Y95250D01*
X209550Y88900D01*
X196850Y88900D01*
X190500Y95250D01*
X190500Y107950D01*
X196850Y114300D01*
X215900Y158750D02*
X209550Y165100D01*
X215900Y158750D02*
X215900Y146050D01*
X209550Y139700D01*
X196850Y139700D01*
X190500Y146050D01*
X190500Y158750D01*
X196850Y165100D01*
X209550Y139700D02*
X215900Y133350D01*
X196850Y139700D02*
X190500Y133350D01*
X190500Y120650D01*
X215900Y196850D02*
X215900Y209550D01*
X215900Y196850D02*
X209550Y190500D01*
X196850Y190500D01*
X190500Y196850D01*
X209550Y190500D02*
X215900Y184150D01*
X215900Y171450D01*
X209550Y165100D01*
X196850Y165100D01*
X190500Y171450D01*
X190500Y184150D01*
X196850Y190500D01*
X215900Y234950D02*
X209550Y241300D01*
X215900Y234950D02*
X215900Y222250D01*
X209550Y215900D01*
X196850Y215900D01*
X190500Y222250D01*
X190500Y234950D01*
X196850Y241300D01*
X209550Y215900D02*
X215900Y209550D01*
X196850Y215900D02*
X190500Y209550D01*
X190500Y196850D01*
X215900Y273050D02*
X215900Y285750D01*
X215900Y273050D02*
X209550Y266700D01*
X196850Y266700D01*
X190500Y273050D01*
X209550Y266700D02*
X215900Y260350D01*
X215900Y247650D01*
X209550Y241300D01*
X196850Y241300D01*
X190500Y247650D01*
X190500Y260350D01*
X196850Y266700D01*
X215900Y311150D02*
X209550Y317500D01*
X215900Y311150D02*
X215900Y298450D01*
X209550Y292100D01*
X196850Y292100D01*
X190500Y298450D01*
X190500Y311150D01*
X196850Y317500D01*
X209550Y292100D02*
X215900Y285750D01*
X196850Y292100D02*
X190500Y285750D01*
X190500Y273050D01*
X215900Y349250D02*
X215900Y361950D01*
X215900Y349250D02*
X209550Y342900D01*
X196850Y342900D01*
X190500Y349250D01*
X209550Y342900D02*
X215900Y336550D01*
X215900Y323850D01*
X209550Y317500D01*
X196850Y317500D01*
X190500Y323850D01*
X190500Y336550D01*
X196850Y342900D01*
X215900Y387350D02*
X209550Y393700D01*
X215900Y387350D02*
X215900Y374650D01*
X209550Y368300D01*
X196850Y368300D01*
X190500Y374650D01*
X190500Y387350D01*
X196850Y393700D01*
X209550Y368300D02*
X215900Y361950D01*
X196850Y368300D02*
X190500Y361950D01*
X190500Y349250D01*
X215900Y425450D02*
X215900Y438150D01*
X215900Y425450D02*
X209550Y419100D01*
X196850Y419100D01*
X190500Y425450D01*
X209550Y419100D02*
X215900Y412750D01*
X215900Y400050D01*
X209550Y393700D01*
X196850Y393700D01*
X190500Y400050D01*
X190500Y412750D01*
X196850Y419100D01*
X196850Y444500D02*
X209550Y444500D01*
X215900Y438150D01*
X196850Y444500D02*
X190500Y438150D01*
X190500Y425450D01*
X209550Y88900D02*
X215900Y82550D01*
X215900Y69850D01*
X209550Y63500D01*
X196850Y63500D01*
X190500Y69850D01*
X190500Y82550D01*
X196850Y88900D01*
D11*
X222123Y421438D02*
X231013Y421438D01*
X231113Y421436D01*
X231212Y421430D01*
X231312Y421420D01*
X231410Y421407D01*
X231509Y421389D01*
X231606Y421368D01*
X231702Y421343D01*
X231798Y421314D01*
X231892Y421281D01*
X231985Y421245D01*
X232076Y421205D01*
X232166Y421161D01*
X232254Y421114D01*
X232340Y421064D01*
X232424Y421010D01*
X232506Y420953D01*
X232585Y420893D01*
X232663Y420829D01*
X232737Y420763D01*
X232809Y420694D01*
X232878Y420622D01*
X232944Y420548D01*
X233008Y420470D01*
X233068Y420391D01*
X233125Y420309D01*
X233179Y420225D01*
X233229Y420139D01*
X233276Y420051D01*
X233320Y419961D01*
X233360Y419870D01*
X233396Y419777D01*
X233429Y419683D01*
X233458Y419587D01*
X233483Y419491D01*
X233504Y419394D01*
X233522Y419295D01*
X233535Y419197D01*
X233545Y419097D01*
X233551Y418998D01*
X233553Y418898D01*
X233553Y417628D01*
X233553Y427419D02*
X222123Y427419D01*
X222123Y430594D01*
X222125Y430705D01*
X222131Y430815D01*
X222140Y430926D01*
X222154Y431036D01*
X222171Y431145D01*
X222192Y431254D01*
X222217Y431362D01*
X222246Y431469D01*
X222278Y431575D01*
X222314Y431680D01*
X222354Y431783D01*
X222397Y431885D01*
X222444Y431986D01*
X222495Y432085D01*
X222548Y432182D01*
X222605Y432276D01*
X222666Y432369D01*
X222729Y432460D01*
X222796Y432549D01*
X222866Y432635D01*
X222939Y432718D01*
X223014Y432800D01*
X223092Y432878D01*
X223174Y432953D01*
X223257Y433026D01*
X223343Y433096D01*
X223432Y433163D01*
X223523Y433226D01*
X223616Y433287D01*
X223711Y433344D01*
X223807Y433397D01*
X223906Y433448D01*
X224007Y433495D01*
X224109Y433538D01*
X224212Y433578D01*
X224317Y433614D01*
X224423Y433646D01*
X224530Y433675D01*
X224638Y433700D01*
X224747Y433721D01*
X224856Y433738D01*
X224966Y433752D01*
X225077Y433761D01*
X225187Y433767D01*
X225298Y433769D01*
X225409Y433767D01*
X225519Y433761D01*
X225630Y433752D01*
X225740Y433738D01*
X225849Y433721D01*
X225958Y433700D01*
X226066Y433675D01*
X226173Y433646D01*
X226279Y433614D01*
X226384Y433578D01*
X226487Y433538D01*
X226589Y433495D01*
X226690Y433448D01*
X226789Y433397D01*
X226886Y433344D01*
X226980Y433287D01*
X227073Y433226D01*
X227164Y433163D01*
X227253Y433096D01*
X227339Y433026D01*
X227422Y432953D01*
X227504Y432878D01*
X227582Y432800D01*
X227657Y432718D01*
X227730Y432635D01*
X227800Y432549D01*
X227867Y432460D01*
X227930Y432369D01*
X227991Y432276D01*
X228048Y432182D01*
X228101Y432085D01*
X228152Y431986D01*
X228199Y431885D01*
X228242Y431783D01*
X228282Y431680D01*
X228318Y431575D01*
X228350Y431469D01*
X228379Y431362D01*
X228404Y431254D01*
X228425Y431145D01*
X228442Y431036D01*
X228456Y430926D01*
X228465Y430815D01*
X228471Y430705D01*
X228473Y430594D01*
X228473Y427419D01*
X224663Y438277D02*
X222123Y441452D01*
X233553Y441452D01*
X233553Y438277D02*
X233553Y444627D01*
D10*
X368300Y133350D02*
X368300Y120650D01*
X361950Y114300D01*
X349250Y114300D01*
X342900Y120650D01*
X361950Y114300D02*
X368300Y107950D01*
X368300Y95250D01*
X361950Y88900D01*
X349250Y88900D01*
X342900Y95250D01*
X342900Y107950D01*
X349250Y114300D01*
X368300Y158750D02*
X361950Y165100D01*
X368300Y158750D02*
X368300Y146050D01*
X361950Y139700D01*
X349250Y139700D01*
X342900Y146050D01*
X342900Y158750D01*
X349250Y165100D01*
X361950Y139700D02*
X368300Y133350D01*
X349250Y139700D02*
X342900Y133350D01*
X342900Y120650D01*
X368300Y196850D02*
X368300Y209550D01*
X368300Y196850D02*
X361950Y190500D01*
X349250Y190500D01*
X342900Y196850D01*
X361950Y190500D02*
X368300Y184150D01*
X368300Y171450D01*
X361950Y165100D01*
X349250Y165100D01*
X342900Y171450D01*
X342900Y184150D01*
X349250Y190500D01*
X368300Y234950D02*
X361950Y241300D01*
X368300Y234950D02*
X368300Y222250D01*
X361950Y215900D01*
X349250Y215900D01*
X342900Y222250D01*
X342900Y234950D01*
X349250Y241300D01*
X361950Y215900D02*
X368300Y209550D01*
X349250Y215900D02*
X342900Y209550D01*
X342900Y196850D01*
X368300Y273050D02*
X368300Y285750D01*
X368300Y273050D02*
X361950Y266700D01*
X349250Y266700D01*
X342900Y273050D01*
X361950Y266700D02*
X368300Y260350D01*
X368300Y247650D01*
X361950Y241300D01*
X349250Y241300D01*
X342900Y247650D01*
X342900Y260350D01*
X349250Y266700D01*
X368300Y311150D02*
X361950Y317500D01*
X368300Y311150D02*
X368300Y298450D01*
X361950Y292100D01*
X349250Y292100D01*
X342900Y298450D01*
X342900Y311150D01*
X349250Y317500D01*
X361950Y292100D02*
X368300Y285750D01*
X349250Y292100D02*
X342900Y285750D01*
X342900Y273050D01*
X368300Y349250D02*
X368300Y361950D01*
X368300Y349250D02*
X361950Y342900D01*
X349250Y342900D01*
X342900Y349250D01*
X361950Y342900D02*
X368300Y336550D01*
X368300Y323850D01*
X361950Y317500D01*
X349250Y317500D01*
X342900Y323850D01*
X342900Y336550D01*
X349250Y342900D01*
X368300Y387350D02*
X361950Y393700D01*
X368300Y387350D02*
X368300Y374650D01*
X361950Y368300D01*
X349250Y368300D01*
X342900Y374650D01*
X342900Y387350D01*
X349250Y393700D01*
X361950Y368300D02*
X368300Y361950D01*
X349250Y368300D02*
X342900Y361950D01*
X342900Y349250D01*
X368300Y425450D02*
X368300Y438150D01*
X368300Y425450D02*
X361950Y419100D01*
X349250Y419100D01*
X342900Y425450D01*
X361950Y419100D02*
X368300Y412750D01*
X368300Y400050D01*
X361950Y393700D01*
X349250Y393700D01*
X342900Y400050D01*
X342900Y412750D01*
X349250Y419100D01*
X349250Y444500D02*
X361950Y444500D01*
X368300Y438150D01*
X349250Y444500D02*
X342900Y438150D01*
X342900Y425450D01*
X361950Y88900D02*
X368300Y82550D01*
X368300Y69850D01*
X361950Y63500D01*
X349250Y63500D01*
X342900Y69850D01*
X342900Y82550D01*
X349250Y88900D01*
D11*
X374523Y421438D02*
X383413Y421438D01*
X383513Y421436D01*
X383612Y421430D01*
X383712Y421420D01*
X383810Y421407D01*
X383909Y421389D01*
X384006Y421368D01*
X384102Y421343D01*
X384198Y421314D01*
X384292Y421281D01*
X384385Y421245D01*
X384476Y421205D01*
X384566Y421161D01*
X384654Y421114D01*
X384740Y421064D01*
X384824Y421010D01*
X384906Y420953D01*
X384985Y420893D01*
X385063Y420829D01*
X385137Y420763D01*
X385209Y420694D01*
X385278Y420622D01*
X385344Y420548D01*
X385408Y420470D01*
X385468Y420391D01*
X385525Y420309D01*
X385579Y420225D01*
X385629Y420139D01*
X385676Y420051D01*
X385720Y419961D01*
X385760Y419870D01*
X385796Y419777D01*
X385829Y419683D01*
X385858Y419587D01*
X385883Y419491D01*
X385904Y419394D01*
X385922Y419295D01*
X385935Y419197D01*
X385945Y419097D01*
X385951Y418998D01*
X385953Y418898D01*
X385953Y417628D01*
X385953Y427419D02*
X374523Y427419D01*
X374523Y430594D01*
X374525Y430705D01*
X374531Y430815D01*
X374540Y430926D01*
X374554Y431036D01*
X374571Y431145D01*
X374592Y431254D01*
X374617Y431362D01*
X374646Y431469D01*
X374678Y431575D01*
X374714Y431680D01*
X374754Y431783D01*
X374797Y431885D01*
X374844Y431986D01*
X374895Y432085D01*
X374948Y432182D01*
X375005Y432276D01*
X375066Y432369D01*
X375129Y432460D01*
X375196Y432549D01*
X375266Y432635D01*
X375339Y432718D01*
X375414Y432800D01*
X375492Y432878D01*
X375574Y432953D01*
X375657Y433026D01*
X375743Y433096D01*
X375832Y433163D01*
X375923Y433226D01*
X376016Y433287D01*
X376111Y433344D01*
X376207Y433397D01*
X376306Y433448D01*
X376407Y433495D01*
X376509Y433538D01*
X376612Y433578D01*
X376717Y433614D01*
X376823Y433646D01*
X376930Y433675D01*
X377038Y433700D01*
X377147Y433721D01*
X377256Y433738D01*
X377366Y433752D01*
X377477Y433761D01*
X377587Y433767D01*
X377698Y433769D01*
X377809Y433767D01*
X377919Y433761D01*
X378030Y433752D01*
X378140Y433738D01*
X378249Y433721D01*
X378358Y433700D01*
X378466Y433675D01*
X378573Y433646D01*
X378679Y433614D01*
X378784Y433578D01*
X378887Y433538D01*
X378989Y433495D01*
X379090Y433448D01*
X379189Y433397D01*
X379286Y433344D01*
X379380Y433287D01*
X379473Y433226D01*
X379564Y433163D01*
X379653Y433096D01*
X379739Y433026D01*
X379822Y432953D01*
X379904Y432878D01*
X379982Y432800D01*
X380057Y432718D01*
X380130Y432635D01*
X380200Y432549D01*
X380267Y432460D01*
X380330Y432369D01*
X380391Y432276D01*
X380448Y432182D01*
X380501Y432085D01*
X380552Y431986D01*
X380599Y431885D01*
X380642Y431783D01*
X380682Y431680D01*
X380718Y431575D01*
X380750Y431469D01*
X380779Y431362D01*
X380804Y431254D01*
X380825Y431145D01*
X380842Y431036D01*
X380856Y430926D01*
X380865Y430815D01*
X380871Y430705D01*
X380873Y430594D01*
X380873Y427419D01*
X374523Y441770D02*
X374525Y441874D01*
X374531Y441979D01*
X374540Y442083D01*
X374553Y442186D01*
X374571Y442289D01*
X374591Y442391D01*
X374616Y442493D01*
X374644Y442593D01*
X374676Y442693D01*
X374712Y442791D01*
X374751Y442888D01*
X374793Y442983D01*
X374839Y443077D01*
X374889Y443169D01*
X374941Y443259D01*
X374997Y443347D01*
X375057Y443433D01*
X375119Y443517D01*
X375184Y443598D01*
X375252Y443677D01*
X375324Y443754D01*
X375397Y443827D01*
X375474Y443899D01*
X375553Y443967D01*
X375634Y444032D01*
X375718Y444094D01*
X375804Y444154D01*
X375892Y444210D01*
X375982Y444262D01*
X376074Y444312D01*
X376168Y444358D01*
X376263Y444400D01*
X376360Y444439D01*
X376458Y444475D01*
X376558Y444507D01*
X376658Y444535D01*
X376760Y444560D01*
X376862Y444580D01*
X376965Y444598D01*
X377068Y444611D01*
X377172Y444620D01*
X377277Y444626D01*
X377381Y444628D01*
X374523Y441770D02*
X374525Y441652D01*
X374531Y441533D01*
X374540Y441415D01*
X374553Y441298D01*
X374571Y441181D01*
X374591Y441064D01*
X374616Y440948D01*
X374644Y440833D01*
X374677Y440720D01*
X374712Y440607D01*
X374752Y440495D01*
X374794Y440385D01*
X374841Y440276D01*
X374891Y440168D01*
X374944Y440063D01*
X375001Y439959D01*
X375061Y439857D01*
X375124Y439757D01*
X375191Y439659D01*
X375260Y439563D01*
X375333Y439470D01*
X375409Y439379D01*
X375487Y439290D01*
X375569Y439204D01*
X375653Y439121D01*
X375739Y439040D01*
X375829Y438963D01*
X375920Y438888D01*
X376014Y438816D01*
X376111Y438747D01*
X376209Y438682D01*
X376310Y438619D01*
X376413Y438560D01*
X376517Y438504D01*
X376623Y438452D01*
X376731Y438403D01*
X376840Y438358D01*
X376951Y438316D01*
X377063Y438278D01*
X379603Y443675D02*
X379528Y443751D01*
X379449Y443826D01*
X379368Y443897D01*
X379284Y443966D01*
X379198Y444031D01*
X379110Y444093D01*
X379020Y444153D01*
X378928Y444209D01*
X378833Y444262D01*
X378737Y444311D01*
X378639Y444357D01*
X378540Y444400D01*
X378439Y444439D01*
X378337Y444474D01*
X378234Y444506D01*
X378130Y444534D01*
X378025Y444559D01*
X377918Y444580D01*
X377812Y444597D01*
X377705Y444610D01*
X377597Y444619D01*
X377489Y444625D01*
X377381Y444627D01*
X379603Y443675D02*
X385953Y438277D01*
X385953Y444627D01*
D10*
X431800Y184150D02*
X431800Y171450D01*
X425450Y165100D01*
X412750Y165100D01*
X406400Y171450D01*
X431800Y209550D02*
X425450Y215900D01*
X431800Y209550D02*
X431800Y196850D01*
X425450Y190500D01*
X412750Y190500D01*
X406400Y196850D01*
X406400Y209550D01*
X412750Y215900D01*
X425450Y190500D02*
X431800Y184150D01*
X412750Y190500D02*
X406400Y184150D01*
X406400Y171450D01*
X431800Y247650D02*
X431800Y260350D01*
X431800Y247650D02*
X425450Y241300D01*
X412750Y241300D01*
X406400Y247650D01*
X425450Y241300D02*
X431800Y234950D01*
X431800Y222250D01*
X425450Y215900D01*
X412750Y215900D01*
X406400Y222250D01*
X406400Y234950D01*
X412750Y241300D01*
X431800Y285750D02*
X425450Y292100D01*
X431800Y285750D02*
X431800Y273050D01*
X425450Y266700D01*
X412750Y266700D01*
X406400Y273050D01*
X406400Y285750D01*
X412750Y292100D01*
X425450Y266700D02*
X431800Y260350D01*
X412750Y266700D02*
X406400Y260350D01*
X406400Y247650D01*
X431800Y323850D02*
X431800Y336550D01*
X431800Y323850D02*
X425450Y317500D01*
X412750Y317500D01*
X406400Y323850D01*
X425450Y317500D02*
X431800Y311150D01*
X431800Y298450D01*
X425450Y292100D01*
X412750Y292100D01*
X406400Y298450D01*
X406400Y311150D01*
X412750Y317500D01*
X412750Y342900D02*
X425450Y342900D01*
X431800Y336550D01*
X412750Y342900D02*
X406400Y336550D01*
X406400Y323850D01*
X431800Y158750D02*
X431800Y146050D01*
X425450Y139700D01*
X412750Y139700D01*
X406400Y146050D01*
X425450Y165100D02*
X431800Y158750D01*
X412750Y165100D02*
X406400Y158750D01*
X406400Y146050D01*
D11*
X438023Y319838D02*
X446913Y319838D01*
X447013Y319836D01*
X447112Y319830D01*
X447212Y319820D01*
X447310Y319807D01*
X447409Y319789D01*
X447506Y319768D01*
X447602Y319743D01*
X447698Y319714D01*
X447792Y319681D01*
X447885Y319645D01*
X447976Y319605D01*
X448066Y319561D01*
X448154Y319514D01*
X448240Y319464D01*
X448324Y319410D01*
X448406Y319353D01*
X448485Y319293D01*
X448563Y319229D01*
X448637Y319163D01*
X448709Y319094D01*
X448778Y319022D01*
X448844Y318948D01*
X448908Y318870D01*
X448968Y318791D01*
X449025Y318709D01*
X449079Y318625D01*
X449129Y318539D01*
X449176Y318451D01*
X449220Y318361D01*
X449260Y318270D01*
X449296Y318177D01*
X449329Y318083D01*
X449358Y317987D01*
X449383Y317891D01*
X449404Y317794D01*
X449422Y317695D01*
X449435Y317597D01*
X449445Y317497D01*
X449451Y317398D01*
X449453Y317298D01*
X449453Y316028D01*
X449453Y325819D02*
X438023Y325819D01*
X438023Y328994D01*
X438025Y329105D01*
X438031Y329215D01*
X438040Y329326D01*
X438054Y329436D01*
X438071Y329545D01*
X438092Y329654D01*
X438117Y329762D01*
X438146Y329869D01*
X438178Y329975D01*
X438214Y330080D01*
X438254Y330183D01*
X438297Y330285D01*
X438344Y330386D01*
X438395Y330485D01*
X438448Y330582D01*
X438505Y330676D01*
X438566Y330769D01*
X438629Y330860D01*
X438696Y330949D01*
X438766Y331035D01*
X438839Y331118D01*
X438914Y331200D01*
X438992Y331278D01*
X439074Y331353D01*
X439157Y331426D01*
X439243Y331496D01*
X439332Y331563D01*
X439423Y331626D01*
X439516Y331687D01*
X439611Y331744D01*
X439707Y331797D01*
X439806Y331848D01*
X439907Y331895D01*
X440009Y331938D01*
X440112Y331978D01*
X440217Y332014D01*
X440323Y332046D01*
X440430Y332075D01*
X440538Y332100D01*
X440647Y332121D01*
X440756Y332138D01*
X440866Y332152D01*
X440977Y332161D01*
X441087Y332167D01*
X441198Y332169D01*
X441309Y332167D01*
X441419Y332161D01*
X441530Y332152D01*
X441640Y332138D01*
X441749Y332121D01*
X441858Y332100D01*
X441966Y332075D01*
X442073Y332046D01*
X442179Y332014D01*
X442284Y331978D01*
X442387Y331938D01*
X442489Y331895D01*
X442590Y331848D01*
X442689Y331797D01*
X442786Y331744D01*
X442880Y331687D01*
X442973Y331626D01*
X443064Y331563D01*
X443153Y331496D01*
X443239Y331426D01*
X443322Y331353D01*
X443404Y331278D01*
X443482Y331200D01*
X443557Y331118D01*
X443630Y331035D01*
X443700Y330949D01*
X443767Y330860D01*
X443830Y330769D01*
X443891Y330676D01*
X443948Y330582D01*
X444001Y330485D01*
X444052Y330386D01*
X444099Y330285D01*
X444142Y330183D01*
X444182Y330080D01*
X444218Y329975D01*
X444250Y329869D01*
X444279Y329762D01*
X444304Y329654D01*
X444325Y329545D01*
X444342Y329436D01*
X444356Y329326D01*
X444365Y329215D01*
X444371Y329105D01*
X444373Y328994D01*
X444373Y325819D01*
X449453Y336677D02*
X449453Y339852D01*
X449451Y339963D01*
X449445Y340073D01*
X449436Y340184D01*
X449422Y340294D01*
X449405Y340403D01*
X449384Y340512D01*
X449359Y340620D01*
X449330Y340727D01*
X449298Y340833D01*
X449262Y340938D01*
X449222Y341041D01*
X449179Y341143D01*
X449132Y341244D01*
X449081Y341343D01*
X449028Y341440D01*
X448971Y341534D01*
X448910Y341627D01*
X448847Y341718D01*
X448780Y341807D01*
X448710Y341893D01*
X448637Y341976D01*
X448562Y342058D01*
X448484Y342136D01*
X448402Y342211D01*
X448319Y342284D01*
X448233Y342354D01*
X448144Y342421D01*
X448053Y342484D01*
X447960Y342545D01*
X447866Y342602D01*
X447769Y342655D01*
X447670Y342706D01*
X447569Y342753D01*
X447467Y342796D01*
X447364Y342836D01*
X447259Y342872D01*
X447153Y342904D01*
X447046Y342933D01*
X446938Y342958D01*
X446829Y342979D01*
X446720Y342996D01*
X446610Y343010D01*
X446499Y343019D01*
X446389Y343025D01*
X446278Y343027D01*
X446167Y343025D01*
X446057Y343019D01*
X445946Y343010D01*
X445836Y342996D01*
X445727Y342979D01*
X445618Y342958D01*
X445510Y342933D01*
X445403Y342904D01*
X445297Y342872D01*
X445192Y342836D01*
X445089Y342796D01*
X444987Y342753D01*
X444886Y342706D01*
X444787Y342655D01*
X444691Y342602D01*
X444596Y342545D01*
X444503Y342484D01*
X444412Y342421D01*
X444323Y342354D01*
X444237Y342284D01*
X444154Y342211D01*
X444072Y342136D01*
X443994Y342058D01*
X443919Y341976D01*
X443846Y341893D01*
X443776Y341807D01*
X443709Y341718D01*
X443646Y341627D01*
X443585Y341534D01*
X443528Y341440D01*
X443475Y341343D01*
X443424Y341244D01*
X443377Y341143D01*
X443334Y341041D01*
X443294Y340938D01*
X443258Y340833D01*
X443226Y340727D01*
X443197Y340620D01*
X443172Y340512D01*
X443151Y340403D01*
X443134Y340294D01*
X443120Y340184D01*
X443111Y340073D01*
X443105Y339963D01*
X443103Y339852D01*
X438023Y340487D02*
X438023Y336677D01*
X438023Y340487D02*
X438025Y340587D01*
X438031Y340686D01*
X438041Y340786D01*
X438054Y340884D01*
X438072Y340983D01*
X438093Y341080D01*
X438118Y341176D01*
X438147Y341272D01*
X438180Y341366D01*
X438216Y341459D01*
X438256Y341550D01*
X438300Y341640D01*
X438347Y341728D01*
X438397Y341814D01*
X438451Y341898D01*
X438508Y341980D01*
X438568Y342059D01*
X438632Y342137D01*
X438698Y342211D01*
X438767Y342283D01*
X438839Y342352D01*
X438913Y342418D01*
X438991Y342482D01*
X439070Y342542D01*
X439152Y342599D01*
X439236Y342653D01*
X439322Y342703D01*
X439410Y342750D01*
X439500Y342794D01*
X439591Y342834D01*
X439684Y342870D01*
X439778Y342903D01*
X439874Y342932D01*
X439970Y342957D01*
X440067Y342978D01*
X440166Y342996D01*
X440264Y343009D01*
X440364Y343019D01*
X440463Y343025D01*
X440563Y343027D01*
X440663Y343025D01*
X440762Y343019D01*
X440862Y343009D01*
X440960Y342996D01*
X441059Y342978D01*
X441156Y342957D01*
X441252Y342932D01*
X441348Y342903D01*
X441442Y342870D01*
X441535Y342834D01*
X441626Y342794D01*
X441716Y342750D01*
X441804Y342703D01*
X441890Y342653D01*
X441974Y342599D01*
X442056Y342542D01*
X442135Y342482D01*
X442213Y342418D01*
X442287Y342352D01*
X442359Y342283D01*
X442428Y342211D01*
X442494Y342137D01*
X442558Y342059D01*
X442618Y341980D01*
X442675Y341898D01*
X442729Y341814D01*
X442779Y341728D01*
X442826Y341640D01*
X442870Y341550D01*
X442910Y341459D01*
X442946Y341366D01*
X442979Y341272D01*
X443008Y341176D01*
X443033Y341080D01*
X443054Y340983D01*
X443072Y340884D01*
X443085Y340786D01*
X443095Y340686D01*
X443101Y340587D01*
X443103Y340487D01*
X443103Y337947D01*
D10*
X101600Y349250D02*
X101600Y361950D01*
X101600Y349250D02*
X95250Y342900D01*
X82550Y342900D01*
X76200Y349250D01*
X95250Y342900D02*
X101600Y336550D01*
X101600Y323850D01*
X95250Y317500D01*
X82550Y317500D01*
X76200Y323850D01*
X76200Y336550D01*
X82550Y342900D01*
X101600Y387350D02*
X95250Y393700D01*
X101600Y387350D02*
X101600Y374650D01*
X95250Y368300D01*
X82550Y368300D01*
X76200Y374650D01*
X76200Y387350D01*
X82550Y393700D01*
X95250Y368300D02*
X101600Y361950D01*
X82550Y368300D02*
X76200Y361950D01*
X76200Y349250D01*
X101600Y425450D02*
X101600Y438150D01*
X101600Y425450D02*
X95250Y419100D01*
X82550Y419100D01*
X76200Y425450D01*
X95250Y419100D02*
X101600Y412750D01*
X101600Y400050D01*
X95250Y393700D01*
X82550Y393700D01*
X76200Y400050D01*
X76200Y412750D01*
X82550Y419100D01*
X82550Y444500D02*
X95250Y444500D01*
X101600Y438150D01*
X82550Y444500D02*
X76200Y438150D01*
X76200Y425450D01*
X101600Y311150D02*
X101600Y298450D01*
X95250Y292100D01*
X82550Y292100D01*
X76200Y298450D01*
X95250Y317500D02*
X101600Y311150D01*
X82550Y317500D02*
X76200Y311150D01*
X76200Y298450D01*
D11*
X107823Y421438D02*
X116713Y421438D01*
X116813Y421436D01*
X116912Y421430D01*
X117012Y421420D01*
X117110Y421407D01*
X117209Y421389D01*
X117306Y421368D01*
X117402Y421343D01*
X117498Y421314D01*
X117592Y421281D01*
X117685Y421245D01*
X117776Y421205D01*
X117866Y421161D01*
X117954Y421114D01*
X118040Y421064D01*
X118124Y421010D01*
X118206Y420953D01*
X118285Y420893D01*
X118363Y420829D01*
X118437Y420763D01*
X118509Y420694D01*
X118578Y420622D01*
X118644Y420548D01*
X118708Y420470D01*
X118768Y420391D01*
X118825Y420309D01*
X118879Y420225D01*
X118929Y420139D01*
X118976Y420051D01*
X119020Y419961D01*
X119060Y419870D01*
X119096Y419777D01*
X119129Y419683D01*
X119158Y419587D01*
X119183Y419491D01*
X119204Y419394D01*
X119222Y419295D01*
X119235Y419197D01*
X119245Y419097D01*
X119251Y418998D01*
X119253Y418898D01*
X119253Y417628D01*
X119253Y427419D02*
X107823Y427419D01*
X107823Y430594D01*
X107825Y430705D01*
X107831Y430815D01*
X107840Y430926D01*
X107854Y431036D01*
X107871Y431145D01*
X107892Y431254D01*
X107917Y431362D01*
X107946Y431469D01*
X107978Y431575D01*
X108014Y431680D01*
X108054Y431783D01*
X108097Y431885D01*
X108144Y431986D01*
X108195Y432085D01*
X108248Y432182D01*
X108305Y432276D01*
X108366Y432369D01*
X108429Y432460D01*
X108496Y432549D01*
X108566Y432635D01*
X108639Y432718D01*
X108714Y432800D01*
X108792Y432878D01*
X108874Y432953D01*
X108957Y433026D01*
X109043Y433096D01*
X109132Y433163D01*
X109223Y433226D01*
X109316Y433287D01*
X109411Y433344D01*
X109507Y433397D01*
X109606Y433448D01*
X109707Y433495D01*
X109809Y433538D01*
X109912Y433578D01*
X110017Y433614D01*
X110123Y433646D01*
X110230Y433675D01*
X110338Y433700D01*
X110447Y433721D01*
X110556Y433738D01*
X110666Y433752D01*
X110777Y433761D01*
X110887Y433767D01*
X110998Y433769D01*
X111109Y433767D01*
X111219Y433761D01*
X111330Y433752D01*
X111440Y433738D01*
X111549Y433721D01*
X111658Y433700D01*
X111766Y433675D01*
X111873Y433646D01*
X111979Y433614D01*
X112084Y433578D01*
X112187Y433538D01*
X112289Y433495D01*
X112390Y433448D01*
X112489Y433397D01*
X112586Y433344D01*
X112680Y433287D01*
X112773Y433226D01*
X112864Y433163D01*
X112953Y433096D01*
X113039Y433026D01*
X113122Y432953D01*
X113204Y432878D01*
X113282Y432800D01*
X113357Y432718D01*
X113430Y432635D01*
X113500Y432549D01*
X113567Y432460D01*
X113630Y432369D01*
X113691Y432276D01*
X113748Y432182D01*
X113801Y432085D01*
X113852Y431986D01*
X113899Y431885D01*
X113942Y431783D01*
X113982Y431680D01*
X114018Y431575D01*
X114050Y431469D01*
X114079Y431362D01*
X114104Y431254D01*
X114125Y431145D01*
X114142Y431036D01*
X114156Y430926D01*
X114165Y430815D01*
X114171Y430705D01*
X114173Y430594D01*
X114173Y427419D01*
X116713Y438277D02*
X107823Y440817D01*
X116713Y438277D02*
X116713Y444627D01*
X114173Y442722D02*
X119253Y442722D01*
D12*
X101600Y158750D02*
X101600Y146050D01*
X101600Y107950D02*
X101600Y95250D01*
X95250Y101600D02*
X107950Y101600D01*
D10*
X101600Y83820D02*
X93980Y76200D01*
X58420Y76200D01*
X50800Y83820D01*
X50800Y170180D01*
X58420Y177800D01*
X93980Y177800D01*
X101600Y170180D01*
D13*
X102193Y125391D02*
X102193Y121835D01*
X102191Y121740D01*
X102185Y121644D01*
X102176Y121549D01*
X102162Y121455D01*
X102145Y121361D01*
X102124Y121268D01*
X102099Y121175D01*
X102071Y121084D01*
X102039Y120994D01*
X102003Y120906D01*
X101964Y120819D01*
X101921Y120733D01*
X101875Y120649D01*
X101826Y120568D01*
X101773Y120488D01*
X101717Y120411D01*
X101659Y120335D01*
X101597Y120263D01*
X101532Y120193D01*
X101464Y120125D01*
X101394Y120060D01*
X101322Y119998D01*
X101246Y119940D01*
X101169Y119884D01*
X101089Y119831D01*
X101007Y119782D01*
X100924Y119736D01*
X100838Y119693D01*
X100751Y119654D01*
X100663Y119618D01*
X100573Y119586D01*
X100482Y119558D01*
X100389Y119533D01*
X100296Y119512D01*
X100202Y119495D01*
X100108Y119481D01*
X100013Y119472D01*
X99917Y119466D01*
X99822Y119464D01*
X99822Y119465D02*
X99229Y119465D01*
X99122Y119467D01*
X99015Y119473D01*
X98909Y119482D01*
X98803Y119496D01*
X98697Y119513D01*
X98592Y119534D01*
X98488Y119559D01*
X98385Y119588D01*
X98283Y119620D01*
X98182Y119656D01*
X98083Y119696D01*
X97985Y119739D01*
X97889Y119786D01*
X97794Y119836D01*
X97701Y119889D01*
X97611Y119946D01*
X97522Y120006D01*
X97436Y120069D01*
X97352Y120135D01*
X97270Y120205D01*
X97191Y120277D01*
X97115Y120352D01*
X97041Y120430D01*
X96971Y120510D01*
X96903Y120593D01*
X96838Y120678D01*
X96777Y120765D01*
X96718Y120855D01*
X96663Y120947D01*
X96611Y121040D01*
X96563Y121136D01*
X96518Y121233D01*
X96476Y121331D01*
X96439Y121431D01*
X96404Y121533D01*
X96374Y121635D01*
X96347Y121739D01*
X96324Y121843D01*
X96305Y121949D01*
X96290Y122055D01*
X96278Y122161D01*
X96270Y122268D01*
X96266Y122375D01*
X96266Y122481D01*
X96270Y122588D01*
X96278Y122695D01*
X96290Y122801D01*
X96305Y122907D01*
X96324Y123013D01*
X96347Y123117D01*
X96374Y123221D01*
X96404Y123323D01*
X96439Y123425D01*
X96476Y123525D01*
X96518Y123623D01*
X96563Y123720D01*
X96611Y123816D01*
X96663Y123910D01*
X96718Y124001D01*
X96777Y124091D01*
X96838Y124178D01*
X96903Y124263D01*
X96971Y124346D01*
X97041Y124426D01*
X97115Y124504D01*
X97191Y124579D01*
X97270Y124651D01*
X97352Y124721D01*
X97436Y124787D01*
X97522Y124850D01*
X97611Y124910D01*
X97701Y124967D01*
X97794Y125020D01*
X97889Y125070D01*
X97985Y125117D01*
X98083Y125160D01*
X98182Y125200D01*
X98283Y125236D01*
X98385Y125268D01*
X98488Y125297D01*
X98592Y125322D01*
X98697Y125343D01*
X98803Y125360D01*
X98909Y125374D01*
X99015Y125383D01*
X99122Y125389D01*
X99229Y125391D01*
X102193Y125391D01*
X102328Y125389D01*
X102464Y125383D01*
X102599Y125374D01*
X102733Y125360D01*
X102868Y125343D01*
X103001Y125322D01*
X103135Y125297D01*
X103267Y125268D01*
X103398Y125235D01*
X103529Y125199D01*
X103658Y125159D01*
X103786Y125115D01*
X103913Y125068D01*
X104039Y125017D01*
X104162Y124963D01*
X104285Y124905D01*
X104405Y124843D01*
X104524Y124778D01*
X104641Y124710D01*
X104756Y124638D01*
X104869Y124564D01*
X104980Y124486D01*
X105088Y124404D01*
X105194Y124320D01*
X105298Y124233D01*
X105399Y124143D01*
X105497Y124050D01*
X105593Y123954D01*
X105686Y123856D01*
X105776Y123755D01*
X105863Y123651D01*
X105947Y123545D01*
X106029Y123437D01*
X106107Y123326D01*
X106181Y123213D01*
X106253Y123098D01*
X106321Y122981D01*
X106386Y122862D01*
X106448Y122742D01*
X106506Y122619D01*
X106560Y122496D01*
X106611Y122370D01*
X106658Y122243D01*
X106702Y122115D01*
X106742Y121986D01*
X106778Y121855D01*
X106811Y121724D01*
X106840Y121592D01*
X106865Y121458D01*
X106886Y121325D01*
X106903Y121190D01*
X106917Y121056D01*
X106926Y120921D01*
X106932Y120785D01*
X106934Y120650D01*
X106934Y133858D02*
X96266Y130302D01*
X96266Y137414D02*
X106934Y133858D01*
D11*
X120015Y138049D02*
X120015Y139954D01*
X126365Y139954D01*
X126365Y136144D01*
X126363Y136044D01*
X126357Y135945D01*
X126347Y135845D01*
X126334Y135747D01*
X126316Y135648D01*
X126295Y135551D01*
X126270Y135455D01*
X126241Y135359D01*
X126208Y135265D01*
X126172Y135172D01*
X126132Y135081D01*
X126088Y134991D01*
X126041Y134903D01*
X125991Y134817D01*
X125937Y134733D01*
X125880Y134651D01*
X125820Y134572D01*
X125756Y134494D01*
X125690Y134420D01*
X125621Y134348D01*
X125549Y134279D01*
X125475Y134213D01*
X125397Y134149D01*
X125318Y134089D01*
X125236Y134032D01*
X125152Y133978D01*
X125066Y133928D01*
X124978Y133881D01*
X124888Y133837D01*
X124797Y133797D01*
X124704Y133761D01*
X124610Y133728D01*
X124514Y133699D01*
X124418Y133674D01*
X124321Y133653D01*
X124222Y133635D01*
X124124Y133622D01*
X124024Y133612D01*
X123925Y133606D01*
X123825Y133604D01*
X117475Y133604D01*
X117375Y133606D01*
X117276Y133612D01*
X117176Y133622D01*
X117078Y133635D01*
X116979Y133653D01*
X116882Y133674D01*
X116786Y133699D01*
X116690Y133728D01*
X116596Y133761D01*
X116503Y133797D01*
X116412Y133837D01*
X116322Y133881D01*
X116234Y133928D01*
X116148Y133978D01*
X116064Y134032D01*
X115982Y134089D01*
X115903Y134149D01*
X115825Y134213D01*
X115751Y134279D01*
X115679Y134348D01*
X115610Y134420D01*
X115544Y134494D01*
X115480Y134572D01*
X115420Y134651D01*
X115363Y134733D01*
X115309Y134817D01*
X115259Y134903D01*
X115212Y134991D01*
X115168Y135081D01*
X115128Y135172D01*
X115092Y135265D01*
X115059Y135359D01*
X115030Y135455D01*
X115005Y135551D01*
X114984Y135648D01*
X114966Y135747D01*
X114953Y135845D01*
X114943Y135945D01*
X114937Y136044D01*
X114935Y136144D01*
X114935Y139954D01*
X117475Y145415D02*
X114935Y148590D01*
X126365Y148590D01*
X126365Y145415D02*
X126365Y151765D01*
D10*
X514350Y419100D02*
X527050Y419100D01*
X514350Y419100D02*
X508000Y425450D01*
X508000Y438150D01*
X514350Y444500D01*
X533400Y438150D02*
X533400Y425450D01*
X527050Y419100D01*
X533400Y438150D02*
X527050Y444500D01*
X514350Y444500D01*
X508000Y425450D02*
X501650Y419100D01*
X488950Y419100D01*
X482600Y425450D01*
X482600Y438150D01*
X488950Y444500D01*
X501650Y444500D01*
X508000Y438150D01*
D11*
X510338Y412877D02*
X510338Y403987D01*
X510336Y403887D01*
X510330Y403788D01*
X510320Y403688D01*
X510307Y403590D01*
X510289Y403491D01*
X510268Y403394D01*
X510243Y403298D01*
X510214Y403202D01*
X510181Y403108D01*
X510145Y403015D01*
X510105Y402924D01*
X510061Y402834D01*
X510014Y402746D01*
X509964Y402660D01*
X509910Y402576D01*
X509853Y402494D01*
X509793Y402415D01*
X509729Y402337D01*
X509663Y402263D01*
X509594Y402191D01*
X509522Y402122D01*
X509448Y402056D01*
X509370Y401992D01*
X509291Y401932D01*
X509209Y401875D01*
X509125Y401821D01*
X509039Y401771D01*
X508951Y401724D01*
X508861Y401680D01*
X508770Y401640D01*
X508677Y401604D01*
X508583Y401571D01*
X508487Y401542D01*
X508391Y401517D01*
X508294Y401496D01*
X508195Y401478D01*
X508097Y401465D01*
X507997Y401455D01*
X507898Y401449D01*
X507798Y401447D01*
X506528Y401447D01*
X516319Y401447D02*
X516319Y412877D01*
X519494Y412877D01*
X519605Y412875D01*
X519715Y412869D01*
X519826Y412860D01*
X519936Y412846D01*
X520045Y412829D01*
X520154Y412808D01*
X520262Y412783D01*
X520369Y412754D01*
X520475Y412722D01*
X520580Y412686D01*
X520683Y412646D01*
X520785Y412603D01*
X520886Y412556D01*
X520985Y412505D01*
X521082Y412452D01*
X521176Y412395D01*
X521269Y412334D01*
X521360Y412271D01*
X521449Y412204D01*
X521535Y412134D01*
X521618Y412061D01*
X521700Y411986D01*
X521778Y411908D01*
X521853Y411826D01*
X521926Y411743D01*
X521996Y411657D01*
X522063Y411568D01*
X522126Y411477D01*
X522187Y411384D01*
X522244Y411289D01*
X522297Y411193D01*
X522348Y411094D01*
X522395Y410993D01*
X522438Y410891D01*
X522478Y410788D01*
X522514Y410683D01*
X522546Y410577D01*
X522575Y410470D01*
X522600Y410362D01*
X522621Y410253D01*
X522638Y410144D01*
X522652Y410034D01*
X522661Y409923D01*
X522667Y409813D01*
X522669Y409702D01*
X522667Y409591D01*
X522661Y409481D01*
X522652Y409370D01*
X522638Y409260D01*
X522621Y409151D01*
X522600Y409042D01*
X522575Y408934D01*
X522546Y408827D01*
X522514Y408721D01*
X522478Y408616D01*
X522438Y408513D01*
X522395Y408411D01*
X522348Y408310D01*
X522297Y408211D01*
X522244Y408114D01*
X522187Y408020D01*
X522126Y407927D01*
X522063Y407836D01*
X521996Y407747D01*
X521926Y407661D01*
X521853Y407578D01*
X521778Y407496D01*
X521700Y407418D01*
X521618Y407343D01*
X521535Y407270D01*
X521449Y407200D01*
X521360Y407133D01*
X521269Y407070D01*
X521176Y407009D01*
X521082Y406952D01*
X520985Y406899D01*
X520886Y406848D01*
X520785Y406801D01*
X520683Y406758D01*
X520580Y406718D01*
X520475Y406682D01*
X520369Y406650D01*
X520262Y406621D01*
X520154Y406596D01*
X520045Y406575D01*
X519936Y406558D01*
X519826Y406544D01*
X519715Y406535D01*
X519605Y406529D01*
X519494Y406527D01*
X516319Y406527D01*
X527177Y401447D02*
X530987Y401447D01*
X531087Y401449D01*
X531186Y401455D01*
X531286Y401465D01*
X531384Y401478D01*
X531483Y401496D01*
X531580Y401517D01*
X531676Y401542D01*
X531772Y401571D01*
X531866Y401604D01*
X531959Y401640D01*
X532050Y401680D01*
X532140Y401724D01*
X532228Y401771D01*
X532314Y401821D01*
X532398Y401875D01*
X532480Y401932D01*
X532559Y401992D01*
X532637Y402056D01*
X532711Y402122D01*
X532783Y402191D01*
X532852Y402263D01*
X532918Y402337D01*
X532982Y402415D01*
X533042Y402494D01*
X533099Y402576D01*
X533153Y402660D01*
X533203Y402746D01*
X533250Y402834D01*
X533294Y402924D01*
X533334Y403015D01*
X533370Y403108D01*
X533403Y403202D01*
X533432Y403298D01*
X533457Y403394D01*
X533478Y403491D01*
X533496Y403590D01*
X533509Y403688D01*
X533519Y403788D01*
X533525Y403887D01*
X533527Y403987D01*
X533527Y405257D01*
X533525Y405357D01*
X533519Y405456D01*
X533509Y405556D01*
X533496Y405654D01*
X533478Y405753D01*
X533457Y405850D01*
X533432Y405946D01*
X533403Y406042D01*
X533370Y406136D01*
X533334Y406229D01*
X533294Y406320D01*
X533250Y406410D01*
X533203Y406498D01*
X533153Y406584D01*
X533099Y406668D01*
X533042Y406750D01*
X532982Y406829D01*
X532918Y406907D01*
X532852Y406981D01*
X532783Y407053D01*
X532711Y407122D01*
X532637Y407188D01*
X532559Y407252D01*
X532480Y407312D01*
X532398Y407369D01*
X532314Y407423D01*
X532228Y407473D01*
X532140Y407520D01*
X532050Y407564D01*
X531959Y407604D01*
X531866Y407640D01*
X531772Y407673D01*
X531676Y407702D01*
X531580Y407727D01*
X531483Y407748D01*
X531384Y407766D01*
X531286Y407779D01*
X531186Y407789D01*
X531087Y407795D01*
X530987Y407797D01*
X527177Y407797D01*
X527177Y412877D01*
X533527Y412877D01*
D10*
X501650Y88900D02*
X488950Y88900D01*
X501650Y88900D02*
X508000Y82550D01*
X508000Y69850D01*
X501650Y63500D01*
X482600Y69850D02*
X482600Y82550D01*
X488950Y88900D01*
X482600Y69850D02*
X488950Y63500D01*
X501650Y63500D01*
X508000Y82550D02*
X514350Y88900D01*
X527050Y88900D01*
X533400Y82550D01*
X533400Y69850D01*
X527050Y63500D01*
X514350Y63500D01*
X508000Y69850D01*
D11*
X486283Y97663D02*
X486283Y106553D01*
X486283Y97663D02*
X486281Y97563D01*
X486275Y97464D01*
X486265Y97364D01*
X486252Y97266D01*
X486234Y97167D01*
X486213Y97070D01*
X486188Y96974D01*
X486159Y96878D01*
X486126Y96784D01*
X486090Y96691D01*
X486050Y96600D01*
X486006Y96510D01*
X485959Y96422D01*
X485909Y96336D01*
X485855Y96252D01*
X485798Y96170D01*
X485738Y96091D01*
X485674Y96013D01*
X485608Y95939D01*
X485539Y95867D01*
X485467Y95798D01*
X485393Y95732D01*
X485315Y95668D01*
X485236Y95608D01*
X485154Y95551D01*
X485070Y95497D01*
X484984Y95447D01*
X484896Y95400D01*
X484806Y95356D01*
X484715Y95316D01*
X484622Y95280D01*
X484528Y95247D01*
X484432Y95218D01*
X484336Y95193D01*
X484239Y95172D01*
X484140Y95154D01*
X484042Y95141D01*
X483942Y95131D01*
X483843Y95125D01*
X483743Y95123D01*
X482473Y95123D01*
X492263Y95123D02*
X492263Y106553D01*
X495438Y106553D01*
X495549Y106551D01*
X495659Y106545D01*
X495770Y106536D01*
X495880Y106522D01*
X495989Y106505D01*
X496098Y106484D01*
X496206Y106459D01*
X496313Y106430D01*
X496419Y106398D01*
X496524Y106362D01*
X496627Y106322D01*
X496729Y106279D01*
X496830Y106232D01*
X496929Y106181D01*
X497026Y106128D01*
X497120Y106071D01*
X497213Y106010D01*
X497304Y105947D01*
X497393Y105880D01*
X497479Y105810D01*
X497562Y105737D01*
X497644Y105662D01*
X497722Y105584D01*
X497797Y105502D01*
X497870Y105419D01*
X497940Y105333D01*
X498007Y105244D01*
X498070Y105153D01*
X498131Y105060D01*
X498188Y104965D01*
X498241Y104869D01*
X498292Y104770D01*
X498339Y104669D01*
X498382Y104567D01*
X498422Y104464D01*
X498458Y104359D01*
X498490Y104253D01*
X498519Y104146D01*
X498544Y104038D01*
X498565Y103929D01*
X498582Y103820D01*
X498596Y103710D01*
X498605Y103599D01*
X498611Y103489D01*
X498613Y103378D01*
X498611Y103267D01*
X498605Y103157D01*
X498596Y103046D01*
X498582Y102936D01*
X498565Y102827D01*
X498544Y102718D01*
X498519Y102610D01*
X498490Y102503D01*
X498458Y102397D01*
X498422Y102292D01*
X498382Y102189D01*
X498339Y102087D01*
X498292Y101986D01*
X498241Y101887D01*
X498188Y101790D01*
X498131Y101696D01*
X498070Y101603D01*
X498007Y101512D01*
X497940Y101423D01*
X497870Y101337D01*
X497797Y101254D01*
X497722Y101172D01*
X497644Y101094D01*
X497562Y101019D01*
X497479Y100946D01*
X497393Y100876D01*
X497304Y100809D01*
X497213Y100746D01*
X497120Y100685D01*
X497026Y100628D01*
X496929Y100575D01*
X496830Y100524D01*
X496729Y100477D01*
X496627Y100434D01*
X496524Y100394D01*
X496419Y100358D01*
X496313Y100326D01*
X496206Y100297D01*
X496098Y100272D01*
X495989Y100251D01*
X495880Y100234D01*
X495770Y100220D01*
X495659Y100211D01*
X495549Y100205D01*
X495438Y100203D01*
X492263Y100203D01*
X503122Y101473D02*
X506932Y101473D01*
X507032Y101471D01*
X507131Y101465D01*
X507231Y101455D01*
X507329Y101442D01*
X507428Y101424D01*
X507525Y101403D01*
X507621Y101378D01*
X507717Y101349D01*
X507811Y101316D01*
X507904Y101280D01*
X507995Y101240D01*
X508085Y101196D01*
X508173Y101149D01*
X508259Y101099D01*
X508343Y101045D01*
X508425Y100988D01*
X508504Y100928D01*
X508582Y100864D01*
X508656Y100798D01*
X508728Y100729D01*
X508797Y100657D01*
X508863Y100583D01*
X508927Y100505D01*
X508987Y100426D01*
X509044Y100344D01*
X509098Y100260D01*
X509148Y100174D01*
X509195Y100086D01*
X509239Y99996D01*
X509279Y99905D01*
X509315Y99812D01*
X509348Y99718D01*
X509377Y99622D01*
X509402Y99526D01*
X509423Y99429D01*
X509441Y99330D01*
X509454Y99232D01*
X509464Y99132D01*
X509470Y99033D01*
X509472Y98933D01*
X509472Y98298D01*
X509470Y98187D01*
X509464Y98077D01*
X509455Y97966D01*
X509441Y97856D01*
X509424Y97747D01*
X509403Y97638D01*
X509378Y97530D01*
X509349Y97423D01*
X509317Y97317D01*
X509281Y97212D01*
X509241Y97109D01*
X509198Y97007D01*
X509151Y96906D01*
X509100Y96807D01*
X509047Y96710D01*
X508990Y96616D01*
X508929Y96523D01*
X508866Y96432D01*
X508799Y96343D01*
X508729Y96257D01*
X508656Y96174D01*
X508581Y96092D01*
X508503Y96014D01*
X508421Y95939D01*
X508338Y95866D01*
X508252Y95796D01*
X508163Y95729D01*
X508072Y95666D01*
X507979Y95605D01*
X507884Y95548D01*
X507788Y95495D01*
X507689Y95444D01*
X507588Y95397D01*
X507486Y95354D01*
X507383Y95314D01*
X507278Y95278D01*
X507172Y95246D01*
X507065Y95217D01*
X506957Y95192D01*
X506848Y95171D01*
X506739Y95154D01*
X506629Y95140D01*
X506518Y95131D01*
X506408Y95125D01*
X506297Y95123D01*
X506186Y95125D01*
X506076Y95131D01*
X505965Y95140D01*
X505855Y95154D01*
X505746Y95171D01*
X505637Y95192D01*
X505529Y95217D01*
X505422Y95246D01*
X505316Y95278D01*
X505211Y95314D01*
X505108Y95354D01*
X505006Y95397D01*
X504905Y95444D01*
X504806Y95495D01*
X504710Y95548D01*
X504615Y95605D01*
X504522Y95666D01*
X504431Y95729D01*
X504342Y95796D01*
X504256Y95866D01*
X504173Y95939D01*
X504091Y96014D01*
X504013Y96092D01*
X503938Y96174D01*
X503865Y96257D01*
X503795Y96343D01*
X503728Y96432D01*
X503665Y96523D01*
X503604Y96616D01*
X503547Y96711D01*
X503494Y96807D01*
X503443Y96906D01*
X503396Y97007D01*
X503353Y97109D01*
X503313Y97212D01*
X503277Y97317D01*
X503245Y97423D01*
X503216Y97530D01*
X503191Y97638D01*
X503170Y97747D01*
X503153Y97856D01*
X503139Y97966D01*
X503130Y98077D01*
X503124Y98187D01*
X503122Y98298D01*
X503122Y101473D01*
X503124Y101613D01*
X503130Y101753D01*
X503139Y101893D01*
X503153Y102032D01*
X503170Y102171D01*
X503191Y102309D01*
X503216Y102447D01*
X503245Y102584D01*
X503277Y102720D01*
X503314Y102855D01*
X503354Y102989D01*
X503397Y103122D01*
X503445Y103254D01*
X503495Y103385D01*
X503550Y103514D01*
X503608Y103641D01*
X503669Y103767D01*
X503734Y103891D01*
X503803Y104013D01*
X503874Y104133D01*
X503949Y104251D01*
X504027Y104368D01*
X504109Y104482D01*
X504193Y104593D01*
X504281Y104702D01*
X504371Y104809D01*
X504465Y104914D01*
X504561Y105015D01*
X504660Y105114D01*
X504761Y105210D01*
X504866Y105304D01*
X504973Y105394D01*
X505082Y105482D01*
X505193Y105566D01*
X505307Y105648D01*
X505424Y105726D01*
X505542Y105801D01*
X505662Y105872D01*
X505784Y105941D01*
X505908Y106006D01*
X506034Y106067D01*
X506161Y106125D01*
X506290Y106180D01*
X506421Y106230D01*
X506553Y106278D01*
X506686Y106321D01*
X506820Y106361D01*
X506955Y106398D01*
X507091Y106430D01*
X507228Y106459D01*
X507366Y106484D01*
X507504Y106505D01*
X507643Y106522D01*
X507782Y106536D01*
X507922Y106545D01*
X508062Y106551D01*
X508202Y106553D01*
D10*
X431800Y374650D02*
X431800Y387350D01*
X431800Y374650D02*
X425450Y368300D01*
X412750Y368300D01*
X406400Y374650D01*
X412750Y393700D02*
X425450Y393700D01*
X431800Y387350D01*
X412750Y393700D02*
X406400Y387350D01*
X406400Y374650D01*
X425450Y368300D02*
X431800Y361950D01*
X431800Y349250D01*
X425450Y342900D01*
X412750Y342900D01*
X406400Y349250D01*
X406400Y361950D01*
X412750Y368300D01*
D11*
X438023Y370638D02*
X446913Y370638D01*
X447013Y370636D01*
X447112Y370630D01*
X447212Y370620D01*
X447310Y370607D01*
X447409Y370589D01*
X447506Y370568D01*
X447602Y370543D01*
X447698Y370514D01*
X447792Y370481D01*
X447885Y370445D01*
X447976Y370405D01*
X448066Y370361D01*
X448154Y370314D01*
X448240Y370264D01*
X448324Y370210D01*
X448406Y370153D01*
X448485Y370093D01*
X448563Y370029D01*
X448637Y369963D01*
X448709Y369894D01*
X448778Y369822D01*
X448844Y369748D01*
X448908Y369670D01*
X448968Y369591D01*
X449025Y369509D01*
X449079Y369425D01*
X449129Y369339D01*
X449176Y369251D01*
X449220Y369161D01*
X449260Y369070D01*
X449296Y368977D01*
X449329Y368883D01*
X449358Y368787D01*
X449383Y368691D01*
X449404Y368594D01*
X449422Y368495D01*
X449435Y368397D01*
X449445Y368297D01*
X449451Y368198D01*
X449453Y368098D01*
X449453Y366828D01*
X449453Y376619D02*
X438023Y376619D01*
X438023Y379794D01*
X438025Y379905D01*
X438031Y380015D01*
X438040Y380126D01*
X438054Y380236D01*
X438071Y380345D01*
X438092Y380454D01*
X438117Y380562D01*
X438146Y380669D01*
X438178Y380775D01*
X438214Y380880D01*
X438254Y380983D01*
X438297Y381085D01*
X438344Y381186D01*
X438395Y381285D01*
X438448Y381382D01*
X438505Y381476D01*
X438566Y381569D01*
X438629Y381660D01*
X438696Y381749D01*
X438766Y381835D01*
X438839Y381918D01*
X438914Y382000D01*
X438992Y382078D01*
X439074Y382153D01*
X439157Y382226D01*
X439243Y382296D01*
X439332Y382363D01*
X439423Y382426D01*
X439516Y382487D01*
X439611Y382544D01*
X439707Y382597D01*
X439806Y382648D01*
X439907Y382695D01*
X440009Y382738D01*
X440112Y382778D01*
X440217Y382814D01*
X440323Y382846D01*
X440430Y382875D01*
X440538Y382900D01*
X440647Y382921D01*
X440756Y382938D01*
X440866Y382952D01*
X440977Y382961D01*
X441087Y382967D01*
X441198Y382969D01*
X441309Y382967D01*
X441419Y382961D01*
X441530Y382952D01*
X441640Y382938D01*
X441749Y382921D01*
X441858Y382900D01*
X441966Y382875D01*
X442073Y382846D01*
X442179Y382814D01*
X442284Y382778D01*
X442387Y382738D01*
X442489Y382695D01*
X442590Y382648D01*
X442689Y382597D01*
X442786Y382544D01*
X442880Y382487D01*
X442973Y382426D01*
X443064Y382363D01*
X443153Y382296D01*
X443239Y382226D01*
X443322Y382153D01*
X443404Y382078D01*
X443482Y382000D01*
X443557Y381918D01*
X443630Y381835D01*
X443700Y381749D01*
X443767Y381660D01*
X443830Y381569D01*
X443891Y381476D01*
X443948Y381382D01*
X444001Y381285D01*
X444052Y381186D01*
X444099Y381085D01*
X444142Y380983D01*
X444182Y380880D01*
X444218Y380775D01*
X444250Y380669D01*
X444279Y380562D01*
X444304Y380454D01*
X444325Y380345D01*
X444342Y380236D01*
X444356Y380126D01*
X444365Y380015D01*
X444371Y379905D01*
X444373Y379794D01*
X444373Y376619D01*
X439293Y387477D02*
X438023Y387477D01*
X438023Y393827D01*
X449453Y390652D01*
M02*
